<svg width="16" height="16" viewBox="0 0 16 16" fill="none" xmlns="http://www.w3.org/2000/svg">
<path d="M9.4999 7.00002C9.4999 7.13263 9.44722 7.25981 9.35345 7.35357C9.25968 7.44734 9.13251 7.50002 8.9999 7.50002H4.9999C4.86729 7.50002 4.74011 7.44734 4.64635 7.35357C4.55258 7.25981 4.4999 7.13263 4.4999 7.00002C4.4999 6.86741 4.55258 6.74024 4.64635 6.64647C4.74011 6.5527 4.86729 6.50002 4.9999 6.50002H8.9999C9.13251 6.50002 9.25968 6.5527 9.35345 6.64647C9.44722 6.74024 9.4999 6.86741 9.4999 7.00002ZM14.3536 14.3538C14.3072 14.4003 14.2521 14.4371 14.1914 14.4623C14.1307 14.4875 14.0656 14.5004 13.9999 14.5004C13.9342 14.5004 13.8691 14.4875 13.8084 14.4623C13.7477 14.4371 13.6926 14.4003 13.6461 14.3538L10.5174 11.2244C9.42846 12.1314 8.03177 12.5837 6.61786 12.4872C5.20395 12.3906 3.88168 11.7527 2.92613 10.7061C1.97058 9.65951 1.45531 8.2848 1.48751 6.86796C1.51971 5.45113 2.0969 4.10125 3.09901 3.09913C4.10112 2.09702 5.451 1.51983 6.86784 1.48763C8.28468 1.45543 9.65938 1.9707 10.706 2.92625C11.7526 3.88181 12.3905 5.20407 12.487 6.61798C12.5836 8.03189 12.1313 9.42859 11.2243 10.5175L14.3536 13.6463C14.4001 13.6927 14.437 13.7479 14.4622 13.8086C14.4873 13.8693 14.5003 13.9343 14.5003 14C14.5003 14.0657 14.4873 14.1308 14.4622 14.1915C14.437 14.2522 14.4001 14.3073 14.3536 14.3538ZM6.9999 11.5C7.88991 11.5 8.75994 11.2361 9.49996 10.7416C10.24 10.2472 10.8168 9.54436 11.1574 8.7221C11.498 7.89983 11.5871 6.99503 11.4134 6.12211C11.2398 5.2492 10.8112 4.44738 10.1819 3.81804C9.55254 3.1887 8.75072 2.76012 7.8778 2.58649C7.00489 2.41285 6.10009 2.50197 5.27782 2.84256C4.45556 3.18316 3.75275 3.75993 3.25829 4.49995C2.76382 5.23998 2.4999 6.11 2.4999 7.00002C2.50122 8.19309 2.97575 9.33691 3.81938 10.1805C4.66301 11.0242 5.80683 11.4987 6.9999 11.5Z" fill="#4A5565"/>
</svg>
