<svg width="38" height="32" viewBox="0 0 38 32" fill="none" xmlns="http://www.w3.org/2000/svg">
<path d="M30.1138 1.11431C29.7598 0.721564 29.4104 0.351648 29.0749 0L21.2649 13.7782C21.4533 13.8513 21.6418 13.9335 21.8303 14.0203L30.1138 1.11431Z" fill="#F3F4F6"/>
<path d="M31.9295 3.24707L22.3543 14.2623C22.5382 14.3537 22.7221 14.4496 22.9106 14.5546L32.8167 4.39792C32.5363 4.01887 32.2421 3.63525 31.9295 3.24707Z" fill="#F3F4F6"/>
<path d="M34.1866 6.38903L23.4714 14.8925C23.6507 15.0067 23.83 15.1254 24.0092 15.2533L34.9129 7.58555C34.6877 7.1928 34.444 6.79548 34.182 6.38446L34.1866 6.38903Z" fill="#F3F4F6"/>
<path d="M35.9931 9.6452L24.5011 15.6278C24.6757 15.7694 24.8458 15.9155 25.0113 16.0708L36.5448 10.9285C36.3839 10.5129 36.2 10.0882 35.9931 9.6452Z" fill="#F3F4F6"/>
<path d="M37.0781 12.4903L25.4067 16.4681C25.5584 16.6325 25.7055 16.8015 25.848 16.9796L37.4182 13.833C37.3309 13.4037 37.216 12.9562 37.0781 12.4858V12.4903Z" fill="#F3F4F6"/>
<path d="M26.6753 22.7156C26.6753 22.7156 26.6615 22.7339 26.657 22.7476L31.4147 25.5197C31.6813 25.3963 31.9341 25.2685 32.1869 25.136L26.8086 22.4918C26.7673 22.5649 26.7259 22.6425 26.6799 22.7156H26.6753Z" fill="#F3F4F6"/>
<path d="M25.8757 23.6427L29.1854 26.3417C29.3968 26.2777 29.6037 26.2138 29.8059 26.1453L26.032 23.4919C25.9814 23.5422 25.9262 23.5924 25.8711 23.6427H25.8757Z" fill="#F3F4F6"/>
<path d="M24.7724 24.4144L27.0157 26.8577C27.2271 26.8211 27.4386 26.78 27.65 26.7344L24.9701 24.3048C24.9057 24.3413 24.8414 24.3779 24.777 24.4144H24.7724Z" fill="#F3F4F6"/>
<path d="M23.4898 24.9716L24.9286 27.1226C24.993 27.118 25.0619 27.1134 25.1263 27.1089C25.2274 27.0997 25.3285 27.086 25.4251 27.0769L23.6645 24.9077C23.6047 24.9305 23.545 24.9488 23.4852 24.9716H23.4898Z" fill="#F3F4F6"/>
<path d="M22.2486 25.3004L23.0255 27.2139C23.1634 27.2139 23.3013 27.2139 23.4392 27.2093L22.4325 25.2639C22.3727 25.2776 22.3084 25.2913 22.2486 25.3004Z" fill="#F3F4F6"/>
<path d="M20.8235 25.4785L21.2143 27.1591C21.343 27.1683 21.4671 27.1728 21.5958 27.182L21.0212 25.4603C20.9522 25.4648 20.8879 25.474 20.8189 25.4785H20.8235Z" fill="#F3F4F6"/>
<path d="M19.4768 25.5379L19.5871 27.0039C19.7066 27.0176 19.8215 27.0313 19.9411 27.045L19.6836 25.5333C19.6147 25.5333 19.5457 25.5333 19.4768 25.5333V25.5379Z" fill="#F3F4F6"/>
<path d="M18.1069 25.4831L17.8541 26.7253C17.969 26.7481 18.0839 26.7709 18.1943 26.7892L18.3322 25.5014C18.254 25.4968 18.1805 25.4922 18.1023 25.4831H18.1069Z" fill="#F3F4F6"/>
<path d="M16.8565 25.3187C16.7738 25.305 16.6911 25.2867 16.6129 25.273L16.0935 26.3188C16.2084 26.3508 16.3233 26.3782 16.4382 26.4102L16.8565 25.3232V25.3187Z" fill="#F3F4F6"/>
<path d="M27.1443 21.6104L33.7453 24.1633C33.9981 23.9806 34.2372 23.7888 34.467 23.5924L27.2178 21.2496C27.1994 21.3729 27.1764 21.4917 27.1489 21.6104H27.1443Z" fill="#F3F4F6"/>
<path d="M27.2454 20.4413L35.8277 22.163C36.03 21.9072 36.2139 21.6378 36.3793 21.3684L27.1903 19.9755C27.2133 20.1353 27.2316 20.2906 27.2408 20.4458L27.2454 20.4413Z" fill="#F3F4F6"/>
<path d="M37.7123 16.5366C37.7123 16.3357 37.7077 16.1256 37.6939 15.9064L26.2295 17.5139C26.3168 17.6509 26.3995 17.7879 26.4823 17.9295L37.7077 16.8608C37.7077 16.7512 37.7123 16.6416 37.7123 16.532V16.5366Z" fill="#F3F4F6"/>
<path d="M26.988 19.0987L37.2389 19.5371C37.34 19.2357 37.4228 18.9297 37.4917 18.6191L26.8225 18.6511C26.8822 18.7972 26.9374 18.9434 26.988 19.0987Z" fill="#F3F4F6"/>
<path d="M7.57104 30.8902C7.925 31.283 8.26976 31.6529 8.60533 32L16.3924 18.2674C16.2085 18.1944 16.02 18.1122 15.8269 18.03L7.57104 30.8902Z" fill="#F3F4F6"/>
<path d="M5.76443 28.7667L15.312 17.7879C15.1282 17.6966 14.9443 17.6007 14.7558 17.4957L4.88184 27.6204C5.16224 27.9994 5.45644 28.3785 5.76443 28.7712V28.7667Z" fill="#F3F4F6"/>
<path d="M3.51194 25.6338L14.1904 17.1577C14.0111 17.0435 13.8318 16.9248 13.6525 16.7969L2.78564 24.4419C3.01089 24.83 3.25452 25.2319 3.51194 25.6384V25.6338Z" fill="#F3F4F6"/>
<path d="M1.71463 22.3867L13.1699 16.427C12.9952 16.2854 12.8252 16.1393 12.6597 15.984L1.1676 21.108C1.32849 21.519 1.51236 21.9483 1.71463 22.3867Z" fill="#F3F4F6"/>
<path d="M0.629758 19.5508L12.2643 15.5822C12.1126 15.4178 11.9655 15.2488 11.8276 15.0707L0.294189 18.2081C0.381529 18.6328 0.491853 19.0804 0.634355 19.5508H0.629758Z" fill="#F3F4F6"/>
<path d="M11.0003 9.36212C11.0003 9.36212 11.0141 9.34385 11.0187 9.33015L6.27939 6.5672C6.01737 6.68594 5.75995 6.81838 5.51172 6.95082L10.8716 9.58589C10.913 9.51282 10.9544 9.43519 11.0003 9.36212Z" fill="#F3F4F6"/>
<path d="M11.7956 8.43956L8.49508 5.74512C8.28823 5.80905 8.08137 5.87299 7.87451 5.94149L11.6347 8.5857C11.6853 8.53547 11.7404 8.48523 11.7956 8.435V8.43956Z" fill="#F3F4F6"/>
<path d="M12.8987 7.66778L10.6647 5.23364C10.4532 5.27018 10.2418 5.31128 10.0349 5.35695L12.7103 7.77738C12.7746 7.74085 12.839 7.70431 12.9033 7.66778H12.8987Z" fill="#F3F4F6"/>
<path d="M14.1768 7.1106L12.7426 4.96417C12.6782 4.96874 12.6092 4.97331 12.5449 4.97787C12.4438 4.98701 12.3472 5.00071 12.2461 5.00984L13.9975 7.16997C14.0572 7.14713 14.117 7.12886 14.1768 7.10603V7.1106Z" fill="#F3F4F6"/>
<path d="M15.413 6.7864L14.6407 4.88202C14.5028 4.88202 14.3649 4.88202 14.227 4.88659L15.2291 6.82293C15.2889 6.80923 15.3532 6.79553 15.413 6.7864Z" fill="#F3F4F6"/>
<path d="M16.8336 6.60823L16.4429 4.9322C16.3142 4.92306 16.1901 4.9185 16.0614 4.90936L16.6314 6.62194C16.7003 6.61737 16.7647 6.60823 16.8336 6.60367V6.60823Z" fill="#F3F4F6"/>
<path d="M18.1759 6.54888L18.0656 5.08749C17.9507 5.07379 17.8312 5.06009 17.7116 5.04639L17.9691 6.55345C18.038 6.55345 18.107 6.55345 18.1759 6.55345V6.54888Z" fill="#F3F4F6"/>
<path d="M19.5411 6.60368L19.794 5.36606C19.679 5.34323 19.5687 5.32039 19.4538 5.30212L19.3159 6.58541C19.394 6.58998 19.4676 6.59455 19.5457 6.60368H19.5411Z" fill="#F3F4F6"/>
<path d="M20.7868 6.76813C20.8695 6.78183 20.9477 6.80009 21.0304 6.81379L21.5453 5.77255C21.4303 5.74058 21.3154 5.71318 21.2005 5.68121L20.7822 6.76356L20.7868 6.76813Z" fill="#F3F4F6"/>
<path d="M10.5314 10.4627L3.95331 7.91895C3.70049 8.10162 3.46145 8.29343 3.23621 8.48524L10.4624 10.8235C10.4808 10.7002 10.5038 10.5814 10.5314 10.4627Z" fill="#F3F4F6"/>
<path d="M10.4302 11.6318L1.87547 9.91467C1.67781 10.1704 1.49394 10.4353 1.32385 10.7093L10.4807 12.0976C10.4578 11.9378 10.4394 11.7825 10.4302 11.6272V11.6318Z" fill="#F3F4F6"/>
<path d="M0 15.5182C0 15.7191 0.00459683 15.9292 0.0183873 16.1439L11.4461 14.5409C11.3588 14.4039 11.276 14.2669 11.1979 14.1253L0.00459683 15.1894C0.00459683 15.299 0 15.4086 0 15.5182Z" fill="#F3F4F6"/>
<path d="M10.6923 12.9653L0.473529 12.5315C0.372398 12.8283 0.289656 13.1343 0.220703 13.4449L10.8578 13.4129C10.798 13.2668 10.7428 13.1206 10.6969 12.9699L10.6923 12.9653Z" fill="#F3F4F6"/>
</svg>
