<svg width="104" height="16" viewBox="0 0 104 16" fill="none" xmlns="http://www.w3.org/2000/svg">
<path d="M10.0038 7.03964L4.28477 5.68174C3.43951 5.4718 3.03935 4.81519 3.03935 4.18537C3.03935 3.43495 3.62834 2.73367 4.68492 2.73367H12.4497V0H4.51856C1.55115 0 0 2.10385 0 4.25684C0 5.98548 1.0341 7.81239 3.39005 8.37074L9.13155 9.72864C10.0263 9.93858 10.4714 10.6622 10.4714 11.3188C10.4714 12.1139 9.83744 12.9313 8.7314 12.9313H0.566504V15.665H8.85279C11.8876 15.665 13.4883 13.4673 13.4883 11.2473C13.4883 9.46957 12.4047 7.62479 10.0038 7.03964Z" fill="#F3F4F6"/>
<path d="M23.6809 10.363C23.6809 12.0693 22.5973 13.4272 20.7629 13.4272C18.9285 13.4272 17.8899 12.0693 17.8899 10.363V4.07373H15.1833V10.3853C15.1833 13.7979 17.3729 15.9956 20.7629 15.9956C24.153 15.9956 26.3875 13.7979 26.3875 10.3853V4.07373H23.6809V10.363Z" fill="#F3F4F6"/>
<path d="M35.2312 3.72083C33.6531 3.72083 32.2908 4.42211 31.441 5.54327H31.3466V4.0469H28.6849V15.6695H31.3916V9.75544C31.3916 7.74539 32.7584 6.36516 34.5433 6.36516C36.2159 6.36516 37.3219 7.58012 37.3219 9.40703V15.6739H40.0286V8.98716C40.0286 5.71301 38.1447 3.72529 35.2267 3.72529L35.2312 3.72083Z" fill="#F3F4F6"/>
<path d="M57.6488 0.00445557H54.9421V4.05136H45.2351C43.2118 4.05136 41.7056 5.43159 41.7056 7.37017C41.7056 8.91121 42.7892 10.1306 44.4348 10.5014L49.0702 11.5064C49.4704 11.6002 49.6817 11.8816 49.6817 12.2792C49.6817 12.7705 49.3535 13.0742 48.9263 13.0742H42.1732V15.6694H48.9533C50.999 15.6694 52.5322 14.2445 52.5322 12.2792C52.5322 10.7113 51.4487 9.47402 49.7536 9.12115L45.1406 8.11612C44.8124 8.04465 44.5517 7.79005 44.5517 7.3925C44.5517 6.95029 44.8574 6.66889 45.307 6.66889H54.9421V12.5159C54.9421 14.5036 56.1426 15.6739 58.1658 15.6739H62.7069V13.0564H58.7053C58.0219 13.0564 57.6443 12.6812 57.6443 12.0514V6.67335H62.7024V4.05582H57.6443V0.00892245L57.6488 0.00445557Z" fill="#F3F4F6"/>
<path d="M70.0624 3.72083C66.2272 3.72083 63.7319 6.40983 63.7319 9.84924C63.7319 13.2887 66.2497 16 70.0624 16C73.8751 16 76.2985 13.2887 76.2985 9.84924C76.2985 6.40983 73.8256 3.72083 70.0624 3.72083ZM70.0624 13.4227C67.8953 13.4227 66.461 11.8325 66.461 9.86711C66.461 7.90173 67.8728 6.31156 70.0624 6.31156C72.252 6.31156 73.5918 7.8794 73.5918 9.86711C73.5918 11.8548 72.18 13.4227 70.0624 13.4227Z" fill="#F3F4F6"/>
<path d="M84.6657 3.72083C83.0876 3.72083 81.7253 4.42211 80.8755 5.54327H80.7811V4.0469H78.1194V15.6695H80.8261V9.75544C80.8261 7.74539 82.1929 6.36516 83.9778 6.36516C85.6504 6.36516 86.7564 7.58012 86.7564 9.40703V15.6739H89.463V8.98716C89.463 5.71301 87.5792 3.72529 84.6612 3.72529L84.6657 3.72083Z" fill="#F3F4F6"/>
<path d="M97.1963 3.72083C93.5949 3.72083 91.1221 6.43216 91.1221 9.87158C91.1221 13.311 93.3566 16 97.1963 16C99.9479 16 102.232 14.5483 102.987 12.0246H100.186C99.7141 12.9581 98.5631 13.5433 97.2458 13.5209C95.4113 13.4763 94.139 12.2836 93.9276 10.7873H103.176C103.531 6.7895 101.081 3.72529 97.1963 3.72529V3.72083ZM93.9726 8.58514C94.3008 7.16024 95.5237 6.19989 97.1513 6.19989C98.7789 6.19989 100.024 7.13344 100.375 8.58514H93.9726Z" fill="#F3F4F6"/>
</svg>
